<?xml version="1.0" standalone="no"?>
<!DOCTYPE svg PUBLIC "-//W3C//DTD SVG 20010904//EN"
 "http://www.w3.org/TR/2001/REC-SVG-20010904/DTD/svg10.dtd">
<svg version="1.0" xmlns="http://www.w3.org/2000/svg"
 width="512.000000pt" height="512.000000pt" viewBox="0 0 512.000000 512.000000"
 preserveAspectRatio="xMidYMid meet">

<g transform="translate(0.000000,512.000000) scale(0.100000,-0.100000)"
fill="#000000" stroke="none">
<path d="M2511 4333 c-91 -4 -93 -4 -87 -26 3 -12 6 -43 6 -69 l0 -48 150 0
150 0 0 75 0 75 -62 -2 c-35 -1 -105 -4 -157 -5z"/>
<path d="M2901 4292 c-27 -99 -27 -100 15 -111 147 -38 247 -61 251 -58 5 6
33 108 33 123 0 6 -57 26 -127 43 -71 18 -136 34 -145 37 -13 4 -19 -4 -27
-34z"/>
<path d="M2101 4250 c-73 -22 -136 -41 -139 -44 -3 -4 27 -136 32 -136 8 0
280 81 284 84 6 7 -29 136 -37 135 -3 0 -66 -18 -140 -39z"/>
<path d="M3342 4139 c-18 -34 -32 -62 -30 -63 27 -18 250 -136 257 -136 14 0
74 111 64 120 -10 10 -246 140 -253 140 -3 0 -20 -28 -38 -61z"/>
<path d="M1668 4047 c-64 -40 -120 -75 -123 -79 -9 -9 53 -118 67 -118 16 0
248 142 248 152 0 13 -63 118 -70 117 -3 0 -58 -33 -122 -72z"/>
<path d="M4055 3910 c-45 -91 -74 -139 -82 -136 -33 13 -163 108 -163 120 0 7
7 34 16 61 17 47 17 48 -7 66 -13 10 -26 19 -29 19 -3 0 -18 -29 -34 -65 -22
-51 -43 -79 -93 -124 l-65 -58 27 -21 27 -22 43 30 c24 17 51 30 60 30 9 0 47
-27 83 -60 37 -33 71 -60 77 -60 5 0 -44 -51 -110 -114 l-120 -113 25 -21 c14
-12 32 -19 40 -16 8 3 74 43 147 90 l133 85 76 -58 c73 -54 164 -96 190 -86
33 12 -39 104 -141 179 l-63 47 15 51 c34 116 74 252 78 266 4 13 -39 50 -57
50 -2 0 -35 -63 -73 -140z"/>
<path d="M2395 3883 c-68 -8 -185 -37 -265 -65 -473 -167 -815 -574 -896
-1067 -20 -124 -15 -384 10 -496 102 -457 416 -825 846 -993 180 -71 417 -103
608 -84 882 88 1445 946 1171 1784 -152 467 -572 828 -1058 912 -87 15 -329
20 -416 9z m370 -158 c93 -15 164 -34 252 -66 38 -15 53 -26 57 -45 10 -40 -9
-62 -72 -79 -295 -82 -472 -157 -472 -201 0 -15 52 -34 92 -34 37 0 68 -16 68
-36 0 -21 -35 -88 -55 -104 -27 -22 -70 -15 -124 20 -48 30 -57 32 -114 28
-70 -6 -111 -24 -174 -75 -48 -38 -55 -69 -23 -98 31 -28 24 -44 -26 -56 -84
-21 -62 -74 28 -66 59 5 89 25 133 86 73 102 130 91 217 -41 61 -91 118 -151
159 -167 41 -15 64 8 94 98 35 107 55 131 106 131 84 0 100 -35 46 -97 -62
-72 -62 -71 -42 -93 18 -20 18 -21 -6 -46 -30 -32 -212 -123 -259 -130 -30 -4
-53 5 -150 61 -63 36 -144 75 -180 86 -76 24 -186 28 -248 9 -171 -52 -254
-300 -162 -486 52 -106 107 -137 331 -184 207 -45 233 -75 259 -310 28 -250
110 -415 216 -434 96 -19 182 87 239 293 14 50 36 131 50 181 30 108 69 187
168 340 42 65 71 119 66 124 -5 6 -50 2 -114 -9 -101 -17 -106 -17 -125 0 -24
22 -26 67 -4 100 23 36 93 59 151 51 27 -4 137 -10 245 -14 230 -9 235 -11
273 -105 20 -51 33 -73 70 -123 12 -16 -14 -102 -66 -213 -132 -283 -374 -507
-669 -618 -137 -52 -207 -64 -385 -70 -148 -4 -184 -2 -274 17 -380 78 -690
322 -857 675 -43 91 -94 248 -94 290 0 15 20 44 53 78 65 66 91 117 92 178 0
84 -39 100 -119 49 l-48 -31 7 63 c14 123 44 243 89 351 11 25 23 37 37 37 29
0 76 26 144 81 109 87 275 271 275 305 0 18 -40 34 -83 34 l-31 0 34 29 c131
111 374 211 590 244 63 10 254 6 335 -8z"/>
<path d="M1293 3731 l-102 -108 50 -49 49 -49 107 108 108 107 -50 50 c-27 27
-52 50 -55 49 -3 0 -51 -49 -107 -108z"/>
<path d="M1021 3340 c-39 -71 -71 -131 -71 -134 0 -6 105 -66 116 -66 9 0 145
237 145 254 0 5 -26 23 -59 41 l-59 33 -72 -128z"/>
<path d="M856 2884 c-20 -79 -36 -146 -36 -148 0 -3 26 -10 57 -16 32 -7 63
-14 69 -17 7 -3 23 43 44 126 17 71 33 138 34 147 1 13 -14 21 -66 34 l-66 17
-36 -143z"/>
<path d="M810 2513 c0 -21 3 -89 7 -150 l6 -113 69 0 68 0 0 150 0 150 -75 0
-75 0 0 -37z"/>
<path d="M927 2090 c-33 -10 -61 -20 -63 -22 -4 -4 72 -277 79 -284 2 -2 32 5
68 15 40 12 64 23 63 32 -2 28 -77 279 -83 278 -3 0 -32 -9 -64 -19z"/>
<path d="M1090 1655 c-30 -19 -54 -40 -52 -47 4 -13 143 -248 148 -248 1 0 30
16 63 36 l60 36 -71 116 c-39 65 -76 122 -82 129 -8 9 -24 4 -66 -22z"/>
<path d="M1357 1272 l-47 -48 103 -102 c56 -56 107 -102 112 -102 13 0 95 82
95 96 0 9 -202 204 -212 204 -2 0 -25 -21 -51 -48z"/>
<path d="M1721 986 c-17 -29 -31 -58 -31 -64 0 -8 126 -83 237 -141 20 -10 24
-6 52 46 17 31 31 60 31 64 0 6 -142 88 -237 138 -20 10 -24 6 -52 -43z"/>
</g>
</svg>
